<svg width="683" height="683" viewBox="0 0 683 683" fill="none" xmlns="http://www.w3.org/2000/svg">
<g clip-path="url(#clip0_59_5257)">
<path d="M506.513 229.163L442.851 350.367L315.6 291.99L251.938 413.195L124.676 354.812L61.0142 476.016L188.276 534.399L315.527 592.776L442.788 651.159L506.451 529.955L570.113 408.75L633.775 287.546L506.513 229.163Z" fill="#D8D2C4"/>
<path d="M50.4559 395.998L60.9834 476.143L124.728 354.782L114.203 274.631L50.4559 395.998Z" fill="#4DAAA9"/>
<path d="M241.381 333.177L251.903 413.319L315.647 291.958L305.128 211.81L241.381 333.177Z" fill="#4DAAA9"/>
<path d="M432.293 270.349L442.821 350.494L506.565 229.133L496.041 148.982L432.293 270.349Z" fill="#4DAAA9"/>
<path d="M124.606 354.825L252.03 413.279L241.503 333.134L114.081 274.674L124.606 354.825Z" fill="#4DAAA9"/>
<path d="M315.541 292.009L442.924 350.448L432.399 270.298L305.014 211.864L315.541 292.009Z" fill="#4DAAA9"/>
<path d="M495.918 149.025L506.443 229.176L633.867 287.63L623.34 207.485L495.918 149.025Z" fill="#4DAAA9"/>
<path d="M114.17 274.764L124.677 354.812L251.939 413.195L241.415 333.166L114.17 274.764ZM219.724 323.565L221.41 336.397L201.013 327.04L199.349 314.22L219.724 323.565ZM182.724 344.038L184.404 356.866L164.021 347.495L162.341 334.667L182.724 344.038ZM162.27 334.23L160.584 321.413L180.97 330.764L182.656 343.595L162.27 334.23ZM183.441 344.372L203.838 353.729L205.522 366.551L185.124 357.194L183.441 344.372ZM183.382 343.912L181.705 331.079L202.097 340.433L203.783 353.264L183.382 343.912ZM181.64 330.63L179.951 317.805L200.349 327.162L202.035 339.993L181.64 330.63ZM180.915 330.299L160.529 320.948L158.843 308.117L179.234 317.471L180.915 330.299ZM159.794 320.634L139.402 311.28L137.716 298.449L158.114 307.806L159.794 320.634ZM159.856 321.087L161.542 333.919L141.144 324.562L139.458 311.73L159.856 321.087ZM161.634 334.367L163.318 347.19L142.895 337.827L141.212 325.004L161.634 334.367ZM163.379 347.643L165.06 360.472L144.662 351.115L142.982 338.286L163.379 347.643ZM164.096 347.977L184.488 357.331L186.169 370.159L165.782 360.808L164.096 347.977ZM185.217 357.643L205.614 367L207.3 379.831L186.903 370.474L185.217 357.643ZM206.343 367.311L226.741 376.668L228.43 389.494L208.032 380.137L206.343 367.311ZM206.29 366.855L204.601 354.029L224.999 363.386L226.682 376.209L206.29 366.855ZM204.545 353.579L202.831 340.747L223.228 350.104L224.909 362.932L204.545 353.579ZM202.772 340.33L201.091 327.502L221.483 336.856L223.169 349.687L202.772 340.33ZM198.63 313.878L200.287 326.708L179.898 317.349L178.21 304.523L198.63 313.878ZM177.498 304.206L179.184 317.037L158.797 307.686L157.112 294.855L177.498 304.206ZM156.377 294.541L158.063 307.372L137.675 297.956L135.995 285.128L156.377 294.541ZM114.862 275.499L135.26 284.856L136.946 297.644L116.571 288.299L114.862 275.499ZM116.608 288.747L136.999 298.101L138.688 310.926L118.291 301.569L116.608 288.747ZM118.35 302.028L138.731 311.362L140.414 324.185L120.022 314.831L118.35 302.028ZM120.097 315.313L140.489 324.667L142.15 337.478L121.769 328.158L120.097 315.313ZM121.831 328.583L142.223 337.937L143.909 350.769L123.511 341.412L121.831 328.583ZM125.268 354.665L123.582 341.834L143.979 351.191L145.662 364.056L125.268 354.665ZM146.394 364.334L144.708 351.503L165.106 360.86L166.792 373.691L146.394 364.334ZM167.52 374.002L165.84 361.174L186.226 370.525L187.912 383.356L167.52 374.002ZM188.641 383.668L186.925 370.949L207.316 380.303L209.002 393.134L188.641 383.668ZM209.773 393.339L208.034 380.609L228.431 389.966L230.115 402.789L209.773 393.339ZM251.26 412.503L230.863 403.146L229.177 390.286L249.574 399.643L251.26 412.503ZM249.512 399.218L229.115 389.861L227.435 377.033L247.832 386.39L249.512 399.218ZM247.77 385.936L227.373 376.579L225.693 363.751L246.084 373.105L247.77 385.936ZM246.028 372.654L225.631 363.297L223.945 350.466L244.342 359.823L246.028 372.654ZM244.281 359.369L223.889 350.015L222.203 337.184L242.598 346.547L244.281 359.369ZM222.141 336.731L220.461 323.902L240.85 333.262L242.539 346.088L222.141 336.731Z" fill="#D8D2C4"/>
<path d="M50.5075 395.968L61.0143 476.016L124.677 354.812L114.17 274.764L50.5075 395.968ZM103.33 295.904L105.019 308.729L94.8224 328.143L93.1335 315.317L103.33 295.904ZM87.4391 375.967L89.1224 388.789L78.9226 408.208L77.2393 395.386L87.4391 375.967ZM77.1777 394.932L75.4973 382.104L85.6972 362.685L87.3805 375.508L77.1777 394.932ZM87.8007 375.278L98.0035 355.854L99.6838 368.682L89.484 388.101L87.8007 375.278ZM87.7391 374.825L86.0587 361.997L96.2615 342.572L97.9448 355.394L87.7391 374.825ZM85.9971 361.543L84.3112 348.712L94.5139 329.287L96.2028 342.113L85.9971 361.543ZM85.6385 362.226L75.4357 381.65L73.7468 368.825L83.9467 349.406L85.6385 362.226ZM75.0771 382.333L64.8714 401.763L63.1854 388.932L73.3882 369.508L75.0771 382.333ZM75.1358 382.792L76.8191 395.615L66.6134 415.045L64.933 402.217L75.1358 382.792ZM76.8777 396.074L78.561 408.897L68.3583 428.321L66.675 415.499L76.8777 396.074ZM78.6227 409.35L80.3086 422.182L70.1058 441.606L68.4199 428.775L78.6227 409.35ZM78.9842 408.662L89.184 389.243L90.87 402.074L80.6701 421.493L78.9842 408.662ZM89.5456 388.555L99.7484 369.13L101.434 381.961L91.2374 401.375L89.5456 388.555ZM100.11 368.442L110.313 349.017L111.999 361.848L101.796 381.273L100.11 368.442ZM100.048 367.988L98.3768 355.143L108.582 335.713L110.266 348.535L100.048 367.988ZM98.3063 354.706L96.6231 341.884L106.829 322.453L108.509 335.281L98.3063 354.706ZM96.5644 341.424L94.8755 328.599L105.078 309.174L106.767 322L96.5644 341.424ZM92.7776 316.008L94.4697 328.814L84.2551 348.261L82.5751 335.419L92.7776 316.008ZM82.2133 336.121L83.8877 348.961L73.6879 368.38L72.0019 355.549L82.2133 336.121ZM71.6519 356.229L73.3351 369.051L63.1294 388.482L61.4435 375.651L71.6519 356.229ZM50.8848 395.767L61.0875 376.342L62.7735 389.173L52.5707 408.598L50.8848 395.767ZM52.6211 409.045L62.8239 389.621L64.5098 402.452L54.3071 421.876L52.6211 409.045ZM54.3687 422.33L64.5715 402.905L66.2518 415.734L56.049 435.158L54.3687 422.33ZM56.1106 435.612L66.3134 416.187L67.9967 429.01L57.7939 448.435L56.1106 435.612ZM57.8556 448.888L68.0583 429.463L69.7443 442.295L59.5415 461.719L57.8556 448.888ZM61.2926 474.97L59.6031 462.173L69.8059 442.748L71.4862 455.576L61.2926 474.97ZM71.8569 454.857L70.1674 442.06L80.3702 422.635L82.0506 435.463L71.8569 454.857ZM82.4212 434.744L80.7318 421.947L90.9316 402.528L92.6119 415.356L82.4212 434.744ZM92.9826 414.637L91.3022 401.808L101.49 382.412L103.171 395.24L92.9826 414.637ZM103.547 394.524L101.867 381.695L112.043 362.321L113.723 375.149L103.547 394.524ZM124.314 354.986L114.097 374.439L112.416 361.61L122.625 342.174L124.314 354.986ZM122.563 341.735L112.36 361.16L110.674 348.329L120.877 328.904L122.563 341.735ZM120.815 328.45L110.613 347.875L108.929 335.052L119.135 315.622L120.815 328.45ZM119.073 315.168L108.871 334.593L107.187 321.771L117.393 302.34L119.073 315.168ZM117.331 301.887L107.129 321.311L105.44 308.486L115.646 289.055L117.331 301.887ZM105.387 308.029L103.698 295.204L113.904 275.774L115.59 288.605L105.387 308.029Z" fill="#D8D2C4"/>
<path d="M241.415 333.166L251.939 413.195L315.601 291.991L305.089 211.939L241.415 333.166ZM304.82 212.955L306.497 225.774L296.294 245.199L294.606 232.374L304.82 212.955ZM295.933 245.887L285.73 265.312L284.041 252.487L294.247 233.056L295.933 245.887ZM278.364 313.145L280.047 325.968L269.847 345.387L268.164 332.564L278.364 313.145ZM268.105 332.105L266.416 319.28L276.616 299.86L278.305 312.686L268.105 332.105ZM278.725 312.457L288.928 293.032L290.611 305.855L280.409 325.279L278.725 312.457ZM278.664 312.003L276.978 299.172L287.18 279.747L288.869 292.573L278.664 312.003ZM276.919 298.713L275.236 285.89L285.438 266.466L287.122 279.288L276.919 298.713ZM276.557 299.401L266.358 318.82L264.674 305.998L274.874 286.579L276.557 299.401ZM265.996 319.509L255.79 338.939L254.11 326.111L264.313 306.686L265.996 319.509ZM266.055 319.968L267.744 332.793L257.538 352.224L255.852 339.393L266.055 319.968ZM267.802 333.253L269.486 346.075L259.283 365.5L257.6 352.677L267.802 333.253ZM269.553 346.518L271.233 359.346L261.025 378.782L259.344 365.954L269.553 346.518ZM269.915 345.829L280.114 326.41L281.795 339.238L271.595 358.658L269.915 345.829ZM280.476 325.722L290.679 306.297L292.359 319.125L282.15 338.561L280.476 325.722ZM291.04 305.609L301.243 286.184L302.923 299.012L292.715 318.448L291.04 305.609ZM290.979 305.155L289.295 292.333L299.501 272.902L301.181 285.731L290.979 305.155ZM289.234 291.879L287.545 279.054L297.751 259.623L299.437 272.454L289.234 291.879ZM287.486 278.594L285.791 265.794L295.997 246.364L297.68 259.186L287.486 278.594ZM285.369 266.001L275.163 285.431L273.477 272.6L283.68 253.175L285.369 266.001ZM274.804 286.114L264.602 305.538L262.916 292.707L273.115 273.288L274.804 286.114ZM264.243 306.221L254.037 325.651L252.351 312.82L262.554 293.395L264.243 306.221ZM241.787 332.933L251.99 313.509L253.676 326.34L243.473 345.764L241.787 332.933ZM243.534 346.218L253.74 326.788L255.421 339.616L245.215 359.046L243.534 346.218ZM245.299 359.483L255.502 340.059L257.188 352.89L246.974 372.337L245.299 359.483ZM247.047 372.768L257.25 353.343L258.933 366.166L248.718 385.613L247.047 372.768ZM248.792 386.044L258.971 366.664L260.651 379.492L250.46 398.895L248.792 386.044ZM250.519 399.354L260.722 379.929L262.414 392.749L252.208 412.18L250.519 399.354ZM261.083 379.241L271.286 359.816L272.972 372.647L262.772 392.067L261.083 379.241ZM271.648 359.128L281.848 339.709L283.534 352.54L273.334 371.959L271.648 359.128ZM282.209 339.021L292.412 319.596L294.098 332.427L283.898 351.846L282.209 339.021ZM292.773 318.907L302.976 299.483L304.662 312.314L294.454 331.75L292.773 318.907ZM315.227 292.201L305.035 311.603L303.35 298.772L313.552 279.347L315.227 292.201ZM313.482 278.91L303.279 298.335L301.593 285.518L311.796 266.094L313.482 278.91ZM311.74 265.629L301.537 285.053L299.857 272.225L310.06 252.801L311.74 265.629ZM309.998 252.347L299.795 271.772L298.109 258.94L308.312 239.516L309.998 252.347ZM308.262 239.04L298.048 258.487L296.373 245.647L306.579 226.217L308.262 239.04Z" fill="#D8D2C4"/>
<path d="M305.089 211.939L315.601 291.99L442.852 350.367L432.334 270.313L305.089 211.939ZM431.74 270.423L433.398 283.239L413.012 273.888L411.355 261.058L431.74 270.423ZM412.309 273.569L391.926 264.212L390.234 251.392L410.626 260.746L412.309 273.569ZM373.633 281.23L375.323 294.041L354.937 284.69L353.253 271.868L373.633 281.23ZM353.208 271.423L351.528 258.595L371.909 267.943L373.595 280.774L353.208 271.423ZM374.376 281.556L394.768 290.91L396.432 303.729L376.043 294.37L374.376 281.556ZM374.315 281.102L372.634 268.274L393.02 277.625L394.706 290.456L374.315 281.102ZM372.556 267.812L370.87 254.981L391.262 264.335L392.942 277.163L372.556 267.812ZM371.83 267.48L351.441 258.149L349.786 245.313L370.172 254.664L371.83 267.48ZM350.715 257.818L330.329 248.467L328.643 235.636L349.032 244.995L350.715 257.818ZM350.777 258.271L352.463 271.103L332.071 261.749L330.391 248.92L350.777 258.271ZM352.524 271.556L354.205 284.384L333.813 275.03L332.133 262.202L352.524 271.556ZM354.266 284.838L355.955 297.649L335.569 288.298L333.883 275.467L354.266 284.838ZM354.986 285.166L375.373 294.517L377.07 307.312L356.69 297.964L354.986 285.166ZM376.101 294.829L396.493 304.183L398.174 317.011L377.79 307.654L376.101 294.829ZM397.222 304.494L417.614 313.848L419.285 326.693L398.896 317.348L397.222 304.494ZM397.16 304.041L395.477 291.218L415.875 300.561L417.549 313.415L397.16 304.041ZM395.418 290.759L393.735 277.936L414.121 287.288L415.807 300.119L395.418 290.759ZM393.677 277.477L391.988 264.652L412.379 274.006L414.065 286.837L393.677 277.477ZM391.209 263.864L370.817 254.51L369.137 241.682L389.523 251.033L391.209 263.864ZM370.088 254.199L349.702 244.848L348.022 232.019L368.402 241.368L370.088 254.199ZM348.973 244.536L328.581 235.182L326.901 222.354L347.293 231.694L348.973 244.536ZM305.789 212.671L326.175 222.023L327.861 234.854L307.47 225.5L305.789 212.671ZM307.531 225.953L327.923 235.307L329.615 248.113L309.229 238.762L307.531 225.953ZM309.273 239.235L329.665 248.589L331.346 261.389L310.954 252.035L309.273 239.235ZM311.027 252.495L331.413 261.846L333.102 274.671L312.71 265.317L311.027 252.495ZM312.772 265.771L333.155 275.127L334.844 287.953L314.452 278.599L312.772 265.771ZM314.514 279.053L334.903 288.412L336.586 301.235L316.2 291.884L314.514 279.053ZM335.634 288.718L356.026 298.072L357.712 310.903L337.32 301.549L335.634 288.718ZM356.761 298.387L377.141 307.735L378.79 320.596L358.404 311.245L356.761 298.387ZM377.87 308.046L398.262 317.4L399.948 330.231L379.559 320.872L377.87 308.046ZM398.996 317.715L419.382 327.066L421.068 339.897L400.652 330.63L398.996 317.715ZM442.18 349.579L421.789 340.225L420.105 327.403L440.491 336.754L442.18 349.579ZM440.438 336.297L420.017 327.013L418.328 314.188L438.72 323.542L440.438 336.297ZM438.691 323.013L418.305 313.662L416.574 300.928L436.966 310.283L438.691 323.013ZM436.946 309.736L416.502 300.455L414.816 287.624L435.208 296.978L436.946 309.736ZM435.204 296.455L414.812 287.101L413.079 274.345L433.471 283.699L435.204 296.455Z" fill="#D8D2C4"/>
<path d="M432.333 270.313L442.851 350.367L506.513 229.163L495.995 149.109L432.333 270.313ZM495.744 150.105L497.424 162.933L487.212 182.374L485.529 169.552L495.744 150.105ZM486.86 183.046L476.648 202.487L474.965 189.665L485.168 170.24L486.86 183.046ZM469.259 250.309L470.942 263.131L460.743 282.55L459.074 269.7L469.259 250.309ZM458.998 269.274L457.312 256.443L467.52 237.007L469.209 249.833L458.998 269.274ZM469.621 249.62L479.824 230.196L481.507 243.018L471.304 262.443L469.621 249.62ZM469.559 249.167L467.873 236.336L478.076 216.911L479.765 229.736L469.559 249.167ZM467.817 235.885L466.131 223.054L476.334 203.629L478.023 216.455L467.817 235.885ZM467.459 236.568L457.256 255.992L455.57 243.161L465.77 223.742L467.459 236.568ZM456.897 256.675L446.691 276.105L445.006 263.274L455.208 243.85L456.897 256.675ZM456.95 257.131L458.639 269.957L448.433 289.387L446.748 276.556L456.95 257.131ZM458.698 270.416L460.398 283.248L450.195 302.672L448.492 289.846L458.698 270.416ZM460.443 283.692L462.123 296.52L451.929 315.928L450.243 303.097L460.443 283.692ZM460.804 283.004L471.004 263.585L472.684 276.413L462.485 295.832L460.804 283.004ZM471.366 262.897L481.568 243.472L483.249 256.3L473.046 275.725L471.366 262.897ZM481.93 242.783L492.133 223.359L493.813 236.187L483.61 255.612L481.93 242.783ZM481.868 242.33L480.185 229.507L490.391 210.077L492.071 222.905L481.868 242.33ZM480.126 229.048L478.438 216.223L488.643 196.792L490.329 209.623L480.126 229.048ZM478.384 215.766L476.696 202.941L486.898 183.516L488.587 196.342L478.384 215.766ZM476.275 203.17L466.07 222.6L464.389 209.772L474.592 190.347L476.275 203.17ZM465.693 223.316L455.494 242.736L453.813 229.907L464.013 210.488L465.693 223.316ZM455.132 243.424L444.944 262.821L443.289 249.984L453.492 230.56L455.132 243.424ZM432.707 270.131L442.91 250.706L444.596 263.523L434.396 282.942L432.707 270.131ZM434.458 283.396L444.661 263.971L446.347 276.803L436.15 296.216L434.458 283.396ZM436.2 296.678L446.403 277.253L448.089 290.084L437.886 309.509L436.2 296.678ZM437.931 309.954L448.134 290.529L449.817 303.352L439.614 322.776L437.931 309.954ZM439.676 323.23L449.878 303.805L451.559 316.634L441.347 336.075L439.676 323.23ZM441.415 336.517L451.62 317.087L453.306 329.918L443.104 349.343L441.415 336.517ZM451.982 316.399L462.185 296.974L463.871 309.805L453.668 329.23L451.982 316.399ZM462.546 296.286L472.74 276.878L474.426 289.709L464.226 309.128L462.546 296.286ZM473.108 276.178L483.322 256.731L485.008 269.562L474.794 289.009L473.108 276.178ZM483.672 256.065L493.875 236.641L495.561 249.472L485.358 268.896L483.672 256.065ZM506.125 229.359L495.922 248.783L494.236 235.952L504.439 216.528L506.125 229.359ZM504.377 216.074L494.175 235.499L492.489 222.668L502.692 203.243L504.377 216.074ZM502.63 202.789L492.415 222.236L490.749 209.394L500.955 189.964L502.63 202.789ZM500.888 189.507L490.685 208.932L488.996 196.107L499.202 176.676L500.888 189.507ZM499.146 176.226L488.943 195.65L487.254 182.825L497.46 163.394L499.146 176.226Z" fill="#D8D2C4"/>
<path d="M495.996 149.109L506.514 229.163L633.776 287.546L623.263 207.495L495.996 149.109ZM622.67 207.604L624.359 220.43L603.962 211.073L602.281 198.245L622.67 207.604ZM603.236 210.742L582.844 201.388L581.158 188.556L601.556 197.913L603.236 210.742ZM564.566 218.392L566.252 231.223L545.861 221.869L544.18 209.04L564.566 218.392ZM544.119 208.587L542.433 195.756L562.824 205.11L564.51 217.941L544.119 208.587ZM565.289 218.728L585.686 228.085L587.358 240.902L566.944 231.536L565.289 218.728ZM565.23 218.269L563.519 205.432L583.916 214.789L585.611 227.631L565.23 218.269ZM563.488 204.987L561.8 192.162L582.197 201.519L583.877 214.347L563.488 204.987ZM562.763 204.656L542.377 195.305L540.691 182.474L561.082 191.828L562.763 204.656ZM541.642 194.991L521.245 185.634L519.564 172.805L539.956 182.16L541.642 194.991ZM541.704 195.444L543.384 208.272L522.992 198.918L521.306 186.087L541.704 195.444ZM543.446 208.726L545.129 221.549L524.737 212.195L523.048 199.369L543.446 208.726ZM545.185 221.985L546.874 234.811L526.477 225.454L524.796 212.626L545.185 221.985ZM545.911 222.316L566.297 231.668L567.989 244.502L547.597 235.147L545.911 222.316ZM567.032 231.982L587.429 241.339L589.109 254.167L568.718 244.813L567.032 231.982ZM588.158 241.65L608.555 251.007L610.244 263.833L589.854 254.53L588.158 241.65ZM588.099 241.191L586.416 228.369L606.813 237.726L608.496 250.548L588.099 241.191ZM586.354 227.915L584.674 215.087L605.066 224.441L606.754 237.309L586.354 227.915ZM584.612 214.633L582.926 201.802L603.317 211.227L605.003 224.058L584.612 214.633ZM582.145 201.02L561.747 191.663L560.067 178.835L580.459 188.189L582.145 201.02ZM561.018 191.352L540.627 181.998L538.946 169.169L559.332 178.521L561.018 191.352ZM539.898 181.686L519.5 172.329L517.814 159.498L538.212 168.855L539.898 181.686ZM496.669 149.798L517.066 159.155L518.75 171.978L498.358 162.624L496.669 149.798ZM498.411 163.08L518.808 172.437L520.548 185.289L500.15 175.932L498.411 163.08ZM500.159 176.365L520.556 185.722L522.239 198.544L501.842 189.187L500.159 176.365ZM501.901 189.646L522.298 199.003L524.009 211.841L503.612 202.484L501.901 189.646ZM503.645 202.923L524.043 212.28L525.729 225.111L505.331 215.754L503.645 202.923ZM505.424 216.217L525.816 225.571L527.502 238.402L507.104 229.045L505.424 216.217ZM526.55 225.885L546.945 235.248L548.628 248.07L528.236 238.716L526.55 225.885ZM547.676 235.553L568.068 244.907L569.725 257.78L549.339 248.429L547.676 235.553ZM568.797 245.219L589.194 254.576L590.88 267.407L570.483 258.05L568.797 245.219ZM589.929 254.89L610.321 264.244L611.957 277.171L591.559 267.814L589.929 254.89ZM633.083 286.839L612.691 277.485L611.005 264.654L631.403 274.011L633.083 286.839ZM631.341 273.557L610.944 264.2L609.263 251.372L629.64 260.754L631.341 273.557ZM629.593 260.273L609.202 250.919L607.516 238.087L627.91 247.45L629.593 260.273ZM627.863 246.968L607.471 237.614L605.785 224.783L626.18 234.146L627.863 246.968ZM626.121 233.687L605.704 224.355L604.023 211.526L624.421 220.883L626.121 233.687Z" fill="#D8D2C4"/>
</g>
<defs>
<clipPath id="clip0_59_5257">
<rect width="505.703" height="505.703" fill="white" transform="translate(0 447.703) rotate(-62.2894)"/>
</clipPath>
</defs>
</svg>
