<svg width="530" height="517" viewBox="0 0 530 517" fill="none" xmlns="http://www.w3.org/2000/svg">
<path d="M126.714 269.815C126.073 271.096 124.304 271.265 123.131 271.904C114.493 276.616 107.138 284.05 100.89 291.533C82.6827 313.34 67.7393 338.614 57.7516 365.197C56.322 369.002 54.8261 372.927 54.3184 376.989C53.6855 382.052 62.0217 370.145 64.9165 365.943C85.7747 335.665 104.456 303.914 125.221 273.546C126.231 272.07 140.003 248.197 143.432 258.172C146.398 266.802 146.865 279.678 140.596 286.98C129.552 299.842 104.651 299.941 90.5906 293.324C78.0622 287.429 66.8756 277.744 57.1545 268.023C38.5999 249.469 97.0777 302.2 115.369 321.014C124.577 330.485 113.037 322.755 107.756 319.67C93.0731 311.093 78.4377 302.13 62.5282 295.936C58.941 294.54 54.6222 292.793 50.6613 293.026C44.1944 293.406 52.9491 303.768 53.7213 304.818C69.2769 325.964 89.8097 345.308 111.339 360.271C113.405 361.707 138.683 378.976 141.416 376.243C142.449 375.211 138.907 374.749 137.61 374.078C132.074 371.215 129.815 370.25 123.654 367.436C106.468 359.588 89.5221 351.363 72.8277 342.508C54.0445 332.546 33.1874 322.65 16.4042 309.371C10.2269 304.483 10.3955 301.08 18.5686 300.788C41.1271 299.982 61.9326 301.818 82.6794 311.61C101.611 320.545 120.493 332.359 136.938 345.419C137.961 346.231 140.258 348.834 138.954 348.777C130.611 348.415 119.743 338.251 113.876 333.403C95.4069 318.138 80.3306 295.472 72.5291 272.875C71.9035 271.062 68.6045 253.235 66.2599 252.649C57.9987 250.583 56.4669 292.583 56.3335 295.265C55.1018 320.035 54.5182 346.309 70.2901 366.988C76.3001 374.868 85.4868 379.876 91.0384 368.63C101.567 347.302 102.44 317.935 102.532 294.593C102.571 284.595 104.098 265.494 96.7106 257.052C95.1266 255.242 97.4249 261.821 98.054 264.142C101.149 275.563 104.301 286.914 106.861 298.474C110.159 313.371 112.185 328.702 117.011 343.18C119.34 350.166 107.054 332.271 102.831 326.238C98.3389 319.821 95.3284 313.798 94.4716 306.087" stroke="black" stroke-width="3" stroke-linecap="round"/>
<rect x="0.277832" y="0.333984" width="290.515" height="181.932" fill="#C4C4C4"/>
<rect x="104.196" y="218.111" width="318.932" height="298.555" fill="#C4C4C4"/>
<rect x="354.549" y="101.433" width="175.401" height="175.401" fill="#A5A5A5"/>
</svg>
